<?xml version="1.0" encoding="UTF-8" standalone="no"?>
<!-- Created with Inkscape (http://www.inkscape.org/) -->

<svg
   width="1080"
   height="1080"
   viewBox="0 0 1080 1080"
   version="1.1"
   id="svg1"
   inkscape:version="1.3.2 (091e20e, 2023-11-25, custom)"
   sodipodi:docname="dpyp_logo.svg"
   inkscape:export-filename="dpyp_logo.png"
   inkscape:export-xdpi="96"
   inkscape:export-ydpi="96"
   xmlns:inkscape="http://www.inkscape.org/namespaces/inkscape"
   xmlns:sodipodi="http://sodipodi.sourceforge.net/DTD/sodipodi-0.dtd"
   xmlns="http://www.w3.org/2000/svg"
   xmlns:svg="http://www.w3.org/2000/svg">
  <sodipodi:namedview
     id="namedview1"
     pagecolor="#505050"
     bordercolor="#ffffff"
     borderopacity="1"
     inkscape:showpageshadow="0"
     inkscape:pageopacity="0"
     inkscape:pagecheckerboard="1"
     inkscape:deskcolor="#505050"
     inkscape:document-units="px"
     inkscape:zoom="0.41012193"
     inkscape:cx="614.45141"
     inkscape:cy="544.95989"
     inkscape:window-width="1920"
     inkscape:window-height="986"
     inkscape:window-x="-32000"
     inkscape:window-y="-32000"
     inkscape:window-maximized="0"
     inkscape:current-layer="layer1" />
  <defs
     id="defs1">
    <clipPath
       clipPathUnits="userSpaceOnUse"
       id="clipPath18">
      <g
         id="g19"
         transform="matrix(1.0070719,0,0,1.0070719,-7.5992201,-3.8675306)">
        <g
           inkscape:label="Clip"
           id="use19"
           transform="matrix(0.99297776,0,0,0.99297776,7.5458566,3.8403719)"
           clip-path="url(#clipPath18)">
          <circle
             style="fill:#aaccff;fill-opacity:1;stroke-width:0.967342"
             id="circle19"
             cx="536.2196"
             cy="539.95129"
             r="488.87408"
             transform="matrix(0.99297776,0,0,0.99297776,7.5458566,3.8403719)" />
        </g>
      </g>
    </clipPath>
    <clipPath
       clipPathUnits="userSpaceOnUse"
       id="clipPath21">
      <g
         inkscape:label="Clip"
         id="use21">
        <circle
           style="fill:#aaccff;fill-opacity:1;stroke-width:0.960549"
           id="circle21"
           cx="540"
           cy="540"
           r="485.4411" />
      </g>
    </clipPath>
  </defs>
  <g
     inkscape:label="Layer 1"
     inkscape:groupmode="layer"
     id="layer1">
    <path
       id="path22"
       style="fill:#d2dff1;fill-opacity:1;stroke-width:1.02438"
       d="M 472.27976,48.91115 A 495.73615,495.73615 0 0 0 48.911105,607.72015 495.73615,495.73615 0 0 0 607.72006,1031.0889 495.73615,495.73615 0 0 0 1031.0889,472.27984 495.73615,495.73615 0 0 0 472.27976,48.91115 Z" />
    <text
       xml:space="preserve"
       style="font-style:italic;font-variant:normal;font-weight:bold;font-stretch:normal;font-size:240px;font-family:'Courier Prime';-inkscape-font-specification:'Courier Prime Bold Italic';fill:#152a4a;fill-opacity:1"
       x="182.47662"
       y="502.03897"
       id="text11"
       transform="rotate(-9.9831318)"><tspan
         sodipodi:role="line"
         id="tspan11"
         x="182.47662"
         y="502.03897"
         style="font-style:oblique;font-variant:normal;font-weight:bold;font-stretch:normal;font-size:240px;font-family:NewComputerModernMono10;-inkscape-font-specification:'NewComputerModernMono10 Bold Oblique';fill:#152a4a;fill-opacity:1">dpyp</tspan></text>
    <ellipse
       style="fill:#479c9c;fill-opacity:1;stroke-width:0.64502"
       id="ellipse3"
       cx="483.216"
       cy="797.72125"
       rx="73.706505"
       ry="143.66586"
       transform="matrix(0.95345773,-0.3015267,0.18189413,0.98331812,0,0)" />
    <ellipse
       style="fill:#142c2c;fill-opacity:1;stroke-width:0.564502"
       id="ellipse2"
       cx="495.35281"
       cy="807.09155"
       rx="62.69828"
       ry="129.35602"
       transform="matrix(0.9468724,-0.32160949,0.1690566,0.98560634,0,0)" />
    <text
       xml:space="preserve"
       style="font-style:normal;font-variant:normal;font-weight:normal;font-stretch:normal;font-size:173.333px;line-height:0;font-family:'Roboto Mono';-inkscape-font-specification:'Roboto Mono';letter-spacing:0px;word-spacing:0px;fill:#477ccb;fill-opacity:1;stroke-width:1.15858"
       x="-46.366669"
       y="671.33813"
       id="text12"
       transform="matrix(0.83560084,-0.14921554,0.19635558,1.1616799,0,0)"><tspan
         sodipodi:role="line"
         id="tspan12"
         x="-46.366669"
         y="671.33813"
         style="font-style:normal;font-variant:normal;font-weight:normal;font-stretch:normal;font-size:173.333px;line-height:0;font-family:NewComputerModernMono10;-inkscape-font-specification:NewComputerModernMono10;letter-spacing:0px;word-spacing:0px;fill:#477ccb;fill-opacity:1;stroke-width:1.15858"
         rotate="0 0 0 0 0 0 0 0 0 0">101010101</tspan></text>
    <path
       id="path3"
       style="fill:#479c9c;fill-opacity:1;stroke-width:0.626354"
       d="m 1006.4748,419.18283 -423.79763,77.72508 0.0175,0.17663 a 144.57103,69.209812 82.85827 0 1 81.09719,121.1163 144.57103,69.209812 82.85827 0 1 -38.94784,162.86536 l 409.97228,-75.18853 z" />
    <path
       id="path23"
       style="fill:#152a4a;fill-opacity:1;stroke-width:0.979204"
       d="M 568.77806,8.9033803 A 531.8756,531.8756 0 0 0 8.9034475,511.22174 531.8756,531.8756 0 0 0 511.22175,1071.0966 531.8756,531.8756 0 0 0 1071.0966,568.77802 531.8756,531.8756 0 0 0 568.77806,8.9033803 Z M 565.63977,66.819579 A 473.8745,473.8745 0 0 1 1013.1803,565.63973 473.8745,473.8745 0 0 1 514.36011,1013.1802 473.8745,473.8745 0 0 1 66.819654,514.36004 473.8745,473.8745 0 0 1 565.6398,66.81958 Z" />
  </g>
</svg>
