<?xml version="1.0" encoding="UTF-8" standalone="no"?>
<!-- Created with Inkscape (http://www.inkscape.org/) -->

<svg
   width="1080"
   height="1080"
   viewBox="0 0 1080 1080"
   version="1.1"
   id="svg1"
   inkscape:version="1.3.2 (091e20ef0f, 2023-11-25)"
   sodipodi:docname="pyped_logo.svg"
   inkscape:export-filename="pyped_logo.png"
   inkscape:export-xdpi="96"
   inkscape:export-ydpi="96"
   xmlns:inkscape="http://www.inkscape.org/namespaces/inkscape"
   xmlns:sodipodi="http://sodipodi.sourceforge.net/DTD/sodipodi-0.dtd"
   xmlns="http://www.w3.org/2000/svg"
   xmlns:svg="http://www.w3.org/2000/svg">
  <sodipodi:namedview
     id="namedview1"
     pagecolor="#505050"
     bordercolor="#ffffff"
     borderopacity="1"
     inkscape:showpageshadow="0"
     inkscape:pageopacity="0"
     inkscape:pagecheckerboard="1"
     inkscape:deskcolor="#505050"
     inkscape:document-units="px"
     inkscape:zoom="0.35355339"
     inkscape:cx="42.426407"
     inkscape:cy="359.21024"
     inkscape:window-width="1920"
     inkscape:window-height="998"
     inkscape:window-x="317"
     inkscape:window-y="1482"
     inkscape:window-maximized="1"
     inkscape:current-layer="layer1" />
  <defs
     id="defs1">
    <clipPath
       clipPathUnits="userSpaceOnUse"
       id="clipPath18">
      <g
         id="g19"
         transform="matrix(1.0070719,0,0,1.0070719,-7.5992201,-3.8675306)">
        <g
           inkscape:label="Clip"
           id="use19"
           transform="matrix(0.99297776,0,0,0.99297776,7.5458566,3.8403719)"
           clip-path="url(#clipPath18)">
          <circle
             style="fill:#aaccff;fill-opacity:1;stroke-width:0.967342"
             id="circle19"
             cx="536.2196"
             cy="539.95129"
             r="488.87408"
             transform="matrix(0.99297776,0,0,0.99297776,7.5458566,3.8403719)" />
        </g>
      </g>
    </clipPath>
    <clipPath
       clipPathUnits="userSpaceOnUse"
       id="clipPath21">
      <g
         inkscape:label="Clip"
         id="use21">
        <circle
           style="fill:#aaccff;fill-opacity:1;stroke-width:0.960549"
           id="circle21"
           cx="540"
           cy="540"
           r="485.4411" />
      </g>
    </clipPath>
  </defs>
  <g
     inkscape:label="Layer 1"
     inkscape:groupmode="layer"
     id="layer1">
    <path
       id="path22"
       style="fill:#afc6e9;fill-opacity:1;stroke-width:1.02438"
       d="M 379.67662,70.904393 A 495.73615,495.73615 0 0 0 70.904306,700.32332 495.73615,495.73615 0 0 0 700.32323,1009.0957 495.73615,495.73615 0 0 0 1009.0957,379.6767 495.73615,495.73615 0 0 0 379.67662,70.904393 Z" />
    <rect
       style="fill:#479c9c;fill-opacity:1;stroke-width:0.642509"
       id="rect4"
       width="455.25436"
       height="285.91949"
       x="375.48465"
       y="620.88727"
       transform="matrix(0.93791736,-0.3468588,0.30118482,0.95356578,0,0)" />
    <ellipse
       style="fill:#479c9c;fill-opacity:1;stroke-width:0.632236"
       id="path5"
       cx="329.41684"
       cy="813.43488"
       rx="71.386604"
       ry="142.51277"
       transform="matrix(0.87353594,-0.48675965,0.36028962,0.9328405,0,0)" />
    <text
       xml:space="preserve"
       style="font-style:italic;font-variant:normal;font-weight:bold;font-stretch:normal;font-size:192px;font-family:'Courier Prime';-inkscape-font-specification:'Courier Prime Bold Italic';fill:#152a4a;fill-opacity:1"
       x="51.573917"
       y="531.58362"
       id="text11"
       transform="rotate(-18.868943)"><tspan
         sodipodi:role="line"
         id="tspan11"
         x="51.573917"
         y="531.58362"
         style="font-style:italic;font-variant:normal;font-weight:bold;font-stretch:normal;font-family:'Courier Prime';-inkscape-font-specification:'Courier Prime Bold Italic';fill:#152a4a;fill-opacity:1">pyped</tspan></text>
    <ellipse
       style="fill:#142c2c;fill-opacity:1;stroke-width:0.59125"
       id="ellipse1"
       cx="335.06903"
       cy="816.38416"
       rx="66.758789"
       ry="133.27403"
       transform="matrix(0.87353594,-0.48675965,0.36028962,0.9328405,0,0)" />
    <text
       xml:space="preserve"
       style="font-style:normal;font-variant:normal;font-weight:normal;font-stretch:normal;font-size:236.553px;line-height:0;font-family:'Roboto Mono';-inkscape-font-specification:'Roboto Mono';letter-spacing:0px;word-spacing:0px;fill:#3771c8;fill-opacity:1;stroke-width:1.23205"
       x="-235.02843"
       y="722.2193"
       id="text12"
       transform="matrix(0.80134827,-0.29365336,0.40315332,1.1001617,0,0)"><tspan
         sodipodi:role="line"
         id="tspan12"
         x="-235.02843"
         y="722.2193"
         style="font-style:normal;font-variant:normal;font-weight:normal;font-stretch:normal;line-height:0;font-family:'Courier Prime Code';-inkscape-font-specification:'Courier Prime Code';letter-spacing:0px;word-spacing:0px;fill:#3771c8;fill-opacity:1;stroke-width:1.23205"
         dx="0"
         rotate="0 0 0 0 0 0">01010</tspan></text>
    <path
       id="path23"
       style="fill:#d5e1f3;fill-opacity:1;stroke-width:0.979204"
       d="M 466.75051,13.192349 A 531.8756,531.8756 0 0 0 13.192379,613.24929 531.8756,531.8756 0 0 0 613.2493,1066.8077 531.8756,531.8756 0 0 0 1066.8076,466.7505 531.8756,531.8756 0 0 0 466.75051,13.192349 Z m 7.98786,57.448487 A 473.8745,473.8745 0 0 1 1009.359,474.73833 473.8745,473.8745 0 0 1 605.26148,1009.359 473.8745,473.8745 0 0 1 70.640867,605.26145 473.8745,473.8745 0 0 1 474.73837,70.640836 Z" />
  </g>
</svg>
