<?xml version="1.0" encoding="UTF-8" standalone="no"?>
<!-- Created with Inkscape (http://www.inkscape.org/) -->

<svg
   width="1080"
   height="1080"
   viewBox="0 0 1080 1080"
   version="1.1"
   id="svg1"
   inkscape:version="1.3.2 (091e20ef0f, 2023-11-25)"
   sodipodi:docname="pyped_logo.svg"
   inkscape:export-filename="pyped_logo.png"
   inkscape:export-xdpi="96"
   inkscape:export-ydpi="96"
   xmlns:inkscape="http://www.inkscape.org/namespaces/inkscape"
   xmlns:sodipodi="http://sodipodi.sourceforge.net/DTD/sodipodi-0.dtd"
   xmlns="http://www.w3.org/2000/svg"
   xmlns:svg="http://www.w3.org/2000/svg">
  <sodipodi:namedview
     id="namedview1"
     pagecolor="#505050"
     bordercolor="#ffffff"
     borderopacity="1"
     inkscape:showpageshadow="0"
     inkscape:pageopacity="0"
     inkscape:pagecheckerboard="1"
     inkscape:deskcolor="#505050"
     inkscape:document-units="px"
     inkscape:zoom="0.5"
     inkscape:cx="410"
     inkscape:cy="456"
     inkscape:window-width="2560"
     inkscape:window-height="1400"
     inkscape:window-x="0"
     inkscape:window-y="0"
     inkscape:window-maximized="1"
     inkscape:current-layer="layer1" />
  <defs
     id="defs1">
    <clipPath
       clipPathUnits="userSpaceOnUse"
       id="clipPath18">
      <g
         id="g19"
         transform="matrix(1.0070719,0,0,1.0070719,-7.5992201,-3.8675306)">
        <g
           inkscape:label="Clip"
           id="use19"
           transform="matrix(0.99297776,0,0,0.99297776,7.5458566,3.8403719)"
           clip-path="url(#clipPath18)">
          <circle
             style="fill:#aaccff;fill-opacity:1;stroke-width:0.967342"
             id="circle19"
             cx="536.2196"
             cy="539.95129"
             r="488.87408"
             transform="matrix(0.99297776,0,0,0.99297776,7.5458566,3.8403719)" />
        </g>
      </g>
    </clipPath>
    <clipPath
       clipPathUnits="userSpaceOnUse"
       id="clipPath21">
      <g
         inkscape:label="Clip"
         id="use21">
        <circle
           style="fill:#aaccff;fill-opacity:1;stroke-width:0.960549"
           id="circle21"
           cx="540"
           cy="540"
           r="485.4411" />
      </g>
    </clipPath>
  </defs>
  <g
     inkscape:label="Layer 1"
     inkscape:groupmode="layer"
     id="layer1">
    <path
       id="path22"
       style="fill:#e1c2d6;fill-opacity:1;stroke-width:1.02438"
       d="M 382.09302,70.281134 A 495.73615,495.73615 0 0 0 73.320706,699.70006 495.73615,495.73615 0 0 0 702.73963,1008.4724 495.73615,495.73615 0 0 0 1011.5121,379.05344 495.73615,495.73615 0 0 0 382.09302,70.281134 Z" />
    <rect
       style="fill:#42a386;fill-opacity:1;stroke-width:0.647846"
       id="rect4"
       width="461.12601"
       height="286.98776"
       x="366.24216"
       y="617.27563"
       transform="matrix(0.93920421,-0.34335906,0.30435079,0.95256002,0,0)" />
    <ellipse
       style="fill:#42a386;fill-opacity:1;stroke-width:0.631901"
       id="path5"
       cx="340.40295"
       cy="810.38916"
       rx="71.081062"
       ry="142.97371"
       transform="matrix(0.87855801,-0.47763567,0.34318789,0.93926677,0,0)" />
    <ellipse
       style="fill:#1e4c3e;fill-opacity:1;stroke-width:0.562468"
       id="ellipse1"
       cx="357.26169"
       cy="821.25977"
       rx="62.297943"
       ry="129.25102"
       transform="matrix(0.86870669,-0.49532685,0.32898545,0.94433499,0,0)" />
    <text
       xml:space="preserve"
       style="font-style:normal;font-variant:normal;font-weight:normal;font-stretch:normal;font-size:236.553px;line-height:0;font-family:'Roboto Mono';-inkscape-font-specification:'Roboto Mono';letter-spacing:0px;word-spacing:0px;fill:#4e79c4;fill-opacity:1;stroke-width:1.23205"
       x="-213.0117"
       y="705.60065"
       id="text12"
       transform="matrix(0.80759429,-0.27601233,0.37893415,1.1087368,0,0)"><tspan
         sodipodi:role="line"
         id="tspan12"
         x="-213.0117"
         y="705.60065"
         style="font-style:normal;font-variant:normal;font-weight:normal;font-stretch:normal;line-height:0;font-family:'Courier Prime Code';-inkscape-font-specification:'Courier Prime Code';letter-spacing:0px;word-spacing:0px;fill:#4e79c4;fill-opacity:1;stroke-width:1.23205"
         dx="0"
         rotate="0 0 0 0 0 0">01010</tspan></text>
    <path
       id="path23"
       style="fill:#1c1c1c;fill-opacity:1;stroke-width:0.979204"
       d="M 466.75052,13.192371 A 531.8756,531.8756 0 0 0 13.192391,613.24931 531.8756,531.8756 0 0 0 613.24931,1066.8077 531.8756,531.8756 0 0 0 1066.8076,466.75052 531.8756,531.8756 0 0 0 466.75052,13.192371 Z m 7.98786,57.448487 A 473.8745,473.8745 0 0 1 1009.359,474.73835 473.8745,473.8745 0 0 1 605.26149,1009.359 473.8745,473.8745 0 0 1 70.640879,605.26147 473.8745,473.8745 0 0 1 474.73838,70.640858 Z" />
    <text
       xml:space="preserve"
       style="font-style:italic;font-variant:normal;font-weight:bold;font-stretch:normal;font-size:192px;font-family:'Courier Prime';-inkscape-font-specification:'Courier Prime Bold Italic';fill:#1c2224;fill-opacity:1"
       x="67.351372"
       y="534.89966"
       id="text11"
       transform="rotate(-18.868943)"><tspan
         sodipodi:role="line"
         id="tspan11"
         x="67.351372"
         y="534.89966"
         style="font-style:italic;font-variant:normal;font-weight:bold;font-stretch:normal;font-family:'Courier Prime';-inkscape-font-specification:'Courier Prime Bold Italic';fill:#1c1c1c;fill-opacity:1">pyped</tspan></text>
  </g>
</svg>
