<?xml version="1.0" encoding="UTF-8" standalone="no"?>
<!-- Created with Inkscape (http://www.inkscape.org/) -->

<svg
   width="1080"
   height="1080"
   viewBox="0 0 1080 1080"
   version="1.1"
   id="svg1"
   inkscape:version="1.3.2 (091e20ef0f, 2023-11-25)"
   sodipodi:docname="pyped_logo.svg"
   inkscape:export-filename="pyped_logo.png"
   inkscape:export-xdpi="96"
   inkscape:export-ydpi="96"
   xmlns:inkscape="http://www.inkscape.org/namespaces/inkscape"
   xmlns:sodipodi="http://sodipodi.sourceforge.net/DTD/sodipodi-0.dtd"
   xmlns="http://www.w3.org/2000/svg"
   xmlns:svg="http://www.w3.org/2000/svg">
  <sodipodi:namedview
     id="namedview1"
     pagecolor="#505050"
     bordercolor="#ffffff"
     borderopacity="1"
     inkscape:showpageshadow="0"
     inkscape:pageopacity="0"
     inkscape:pagecheckerboard="1"
     inkscape:deskcolor="#505050"
     inkscape:document-units="px"
     inkscape:zoom="0.5"
     inkscape:cx="218"
     inkscape:cy="296"
     inkscape:window-width="2560"
     inkscape:window-height="1400"
     inkscape:window-x="0"
     inkscape:window-y="0"
     inkscape:window-maximized="1"
     inkscape:current-layer="layer1" />
  <defs
     id="defs1">
    <clipPath
       clipPathUnits="userSpaceOnUse"
       id="clipPath18">
      <g
         id="g19"
         transform="matrix(1.0070719,0,0,1.0070719,-7.5992201,-3.8675306)">
        <g
           inkscape:label="Clip"
           id="use19"
           transform="matrix(0.99297776,0,0,0.99297776,7.5458566,3.8403719)"
           clip-path="url(#clipPath18)">
          <circle
             style="fill:#aaccff;fill-opacity:1;stroke-width:0.967342"
             id="circle19"
             cx="536.2196"
             cy="539.95129"
             r="488.87408"
             transform="matrix(0.99297776,0,0,0.99297776,7.5458566,3.8403719)" />
        </g>
      </g>
    </clipPath>
    <clipPath
       clipPathUnits="userSpaceOnUse"
       id="clipPath21">
      <g
         inkscape:label="Clip"
         id="use21">
        <circle
           style="fill:#aaccff;fill-opacity:1;stroke-width:0.960549"
           id="circle21"
           cx="540"
           cy="540"
           r="485.4411" />
      </g>
    </clipPath>
  </defs>
  <g
     inkscape:label="Layer 1"
     inkscape:groupmode="layer"
     id="layer1">
    <path
       id="path22"
       style="fill:#aaccff;fill-opacity:1;stroke-width:1.02438"
       d="M 379.67668,70.904389 A 495.73615,495.73615 0 0 0 70.904355,700.32332 495.73615,495.73615 0 0 0 700.32329,1009.0956 495.73615,495.73615 0 0 0 1009.0957,379.6767 495.73615,495.73615 0 0 0 379.67668,70.904389 Z" />
    <rect
       style="fill:#00aa88;fill-opacity:1;stroke-width:0.652074"
       id="rect4"
       width="466.32309"
       height="287.50531"
       x="357.3912"
       y="614.70697"
       transform="matrix(0.94051016,-0.33976555,0.3076541,0.95149827,0,0)" />
    <ellipse
       style="fill:#00aa88;fill-opacity:1;stroke-width:0.689902"
       id="path5"
       cx="346.75885"
       cy="752.97284"
       rx="83.802116"
       ry="144.55418"
       transform="rotate(-18.868943)" />
    <ellipse
       style="fill:#374845;fill-opacity:1;stroke-width:0.599752"
       id="path5-6"
       cx="346.75885"
       cy="752.97284"
       rx="69.243698"
       ry="132.21269"
       transform="rotate(-18.868943)" />
    <text
       xml:space="preserve"
       style="font-style:normal;font-variant:normal;font-weight:normal;font-stretch:normal;font-size:236.553px;line-height:0;font-family:'Roboto Mono';-inkscape-font-specification:'Roboto Mono';letter-spacing:0px;word-spacing:0px;fill:#1c2224;fill-opacity:1;stroke-width:1.23205"
       x="-222.93944"
       y="709.24377"
       id="text12"
       transform="matrix(0.80759429,-0.27601233,0.37893415,1.1087368,0,0)"><tspan
         sodipodi:role="line"
         id="tspan12"
         x="-222.93944"
         y="709.24377"
         style="font-style:normal;font-variant:normal;font-weight:normal;font-stretch:normal;line-height:0;font-family:'Courier Prime Code';-inkscape-font-specification:'Courier Prime Code';letter-spacing:0px;word-spacing:0px;fill:#1a1a1a;stroke-width:1.23205"
         dx="0"
         rotate="0 0 0 0 0 0">01010</tspan></text>
    <path
       id="path23"
       style="fill:#d5e5ff;fill-opacity:1;stroke-width:0.979023"
       d="M 466.76432,13.291628 A 531.77539,531.77539 0 0 0 13.291648,613.23551 531.77539,531.77539 0 0 0 613.23551,1066.7084 531.77539,531.77539 0 0 0 1066.7083,466.76432 531.77539,531.77539 0 0 0 466.76432,13.291628 Z m 7.98635,57.437663 A 473.78522,473.78522 0 0 1 1009.2706,474.75065 473.78522,473.78522 0 0 1 605.24919,1009.2706 473.78522,473.78522 0 0 1 70.729312,605.24917 473.78522,473.78522 0 0 1 474.75067,70.729291 Z" />
    <text
       xml:space="preserve"
       style="font-style:italic;font-variant:normal;font-weight:bold;font-stretch:normal;font-size:192px;font-family:'Courier Prime';-inkscape-font-specification:'Courier Prime Bold Italic';fill:#1c2224;fill-opacity:1"
       x="67.351372"
       y="534.89966"
       id="text11"
       transform="rotate(-18.868943)"><tspan
         sodipodi:role="line"
         id="tspan11"
         x="67.351372"
         y="534.89966"
         style="font-style:italic;font-variant:normal;font-weight:bold;font-stretch:normal;font-family:'Courier Prime';-inkscape-font-specification:'Courier Prime Bold Italic';fill:#1a1a1a">pyped</tspan></text>
  </g>
</svg>
