<?xml version="1.0" encoding="UTF-8" standalone="no"?>
<!-- Created with Inkscape (http://www.inkscape.org/) -->

<svg
   width="1080"
   height="1080"
   viewBox="0 0 1080 1080"
   version="1.1"
   id="svg1"
   inkscape:version="1.3.2 (091e20ef0f, 2023-11-25)"
   sodipodi:docname="dpyp_logo.svg"
   inkscape:export-filename="dpyp_logo.png"
   inkscape:export-xdpi="96"
   inkscape:export-ydpi="96"
   xmlns:inkscape="http://www.inkscape.org/namespaces/inkscape"
   xmlns:sodipodi="http://sodipodi.sourceforge.net/DTD/sodipodi-0.dtd"
   xmlns="http://www.w3.org/2000/svg"
   xmlns:svg="http://www.w3.org/2000/svg">
  <sodipodi:namedview
     id="namedview1"
     pagecolor="#505050"
     bordercolor="#ffffff"
     borderopacity="1"
     inkscape:showpageshadow="0"
     inkscape:pageopacity="0"
     inkscape:pagecheckerboard="1"
     inkscape:deskcolor="#505050"
     inkscape:document-units="px"
     inkscape:zoom="0.29"
     inkscape:cx="22.413793"
     inkscape:cy="539.65518"
     inkscape:window-width="1920"
     inkscape:window-height="999"
     inkscape:window-x="0"
     inkscape:window-y="0"
     inkscape:window-maximized="1"
     inkscape:current-layer="layer1" />
  <defs
     id="defs1">
    <clipPath
       clipPathUnits="userSpaceOnUse"
       id="clipPath18">
      <g
         id="g19"
         transform="matrix(1.0070719,0,0,1.0070719,-7.5992201,-3.8675306)">
        <g
           inkscape:label="Clip"
           id="use19"
           transform="matrix(0.99297776,0,0,0.99297776,7.5458566,3.8403719)"
           clip-path="url(#clipPath18)">
          <circle
             style="fill:#aaccff;fill-opacity:1;stroke-width:0.967342"
             id="circle19"
             cx="536.2196"
             cy="539.95129"
             r="488.87408"
             transform="matrix(0.99297776,0,0,0.99297776,7.5458566,3.8403719)" />
        </g>
      </g>
    </clipPath>
    <clipPath
       clipPathUnits="userSpaceOnUse"
       id="clipPath21">
      <g
         inkscape:label="Clip"
         id="use21">
        <circle
           style="fill:#aaccff;fill-opacity:1;stroke-width:0.960549"
           id="circle21"
           cx="540"
           cy="540"
           r="485.4411" />
      </g>
    </clipPath>
  </defs>
  <g
     inkscape:groupmode="layer"
     id="layer2"
     inkscape:label="Background">
    <path
       sodipodi:type="star"
       style="fill:#bccfea"
       id="path1-6"
       inkscape:flatsided="false"
       sodipodi:sides="3"
       sodipodi:cx="1864.8168"
       sodipodi:cy="1917.7397"
       sodipodi:r1="513.55603"
       sodipodi:r2="513.55603"
       sodipodi:arg1="0.52359878"
       sodipodi:arg2="1.5707963"
       inkscape:rounded="0"
       inkscape:randomized="0"
       d="m 2309.5693,2174.5178 -444.7525,256.778 -444.7526,-256.778 0,-513.5561 444.7526,-256.778 444.7525,256.778 z"
       transform="matrix(0.97523497,0,0,0.97523497,-1278.6345,-1330.2469)"
       clip-path="none" />
  </g>
  <g
     inkscape:label="Layer 1"
     inkscape:groupmode="layer"
     id="layer1">
    <path
       style="font-style:oblique;font-weight:bold;font-size:240px;font-family:NewComputerModernMono10;-inkscape-font-specification:'NewComputerModernMono10 Bold Oblique';fill:#152a4a;stroke-width:1.07055"
       d="m 402.87876,445.24327 c -0.1336,-0.75917 -0.0582,-1.81584 -0.19233,-2.57503 -1.15815,-6.57898 -7.52866,-5.71848 -11.57733,-5.00587 l -9.10944,1.60355 4.58017,-128.11553 c 0.10454,-2.36643 0.0463,-4.18229 -0.22076,-5.70051 -0.84623,-4.80772 -3.68846,-6.13359 -11.27956,-4.79739 l -17.96583,3.16237 c -4.8077,0.84635 -12.10142,2.39102 -12.47763,12.10975 -0.0753,1.05682 0.1032,2.06893 0.23692,2.8281 1.15801,6.579 7.48394,5.46542 11.27955,4.79741 l 9.10943,-1.60356 -1.04172,34.09781 c -7.60353,-4.66194 -16.99433,-6.13943 -26.60989,-4.44685 -27.83432,4.89938 -53.46161,34.19397 -54.54792,68.0387 -0.21033,4.73285 0.0846,9.37666 0.79793,13.42534 4.40954,25.05092 24.0641,40.37451 47.34377,36.27677 12.39893,-2.18241 22.13564,-9.11393 29.62555,-16.95439 0.0146,1.5628 0.23691,2.82795 0.41511,3.8402 0.75718,4.30159 3.09317,5.71663 11.19052,4.29126 l 17.96582,-3.16237 c 4.8077,-0.84634 12.1013,-2.39101 12.47764,-12.10976 z M 361.88939,410.9784 c -0.25874,13.35045 -11.50536,35.41785 -29.21812,38.53579 -13.91716,2.44962 -25.32859,-7.54214 -28.17919,-23.73669 -0.53441,-3.03644 -0.8159,-6.11745 -0.68032,-9.79363 0.84357,-23.36681 17.40216,-41.93425 33.84964,-44.82942 12.90504,-2.27157 22.7394,6.17168 24.65473,17.05241 0.26721,1.51822 0.28137,3.08101 0.29565,4.64367 z M 531.2496,375.6886 c 0.2549,-4.47979 -0.29379,-9.07902 -1.05099,-13.38075 -4.40954,-25.05092 -23.81103,-40.4191 -47.09068,-36.32134 -10.88059,1.91519 -21.39078,7.41753 -29.89278,15.43616 0.11905,-0.80375 -0.0582,-1.81586 -0.19234,-2.57503 -0.71274,-4.04853 -3.59942,-5.62748 -11.19065,-4.29129 l -17.96568,3.16236 c -4.80786,0.84638 -12.05687,2.6441 -12.47779,12.10991 -0.0753,1.05668 0.1032,2.06878 0.23693,2.82797 1.15813,6.57898 7.48407,5.46542 11.27967,4.79739 l 9.10946,-1.60355 -4.46272,131.74712 -8.8564,1.55896 c -4.80771,0.84636 -12.35434,2.4356 -12.73069,12.15434 0.17817,1.01225 0.1032,2.06892 0.23692,2.82797 1.15814,6.57898 7.48406,5.46556 11.53273,4.75281 l 39.22115,-6.90375 c 4.30158,-0.75719 11.84823,-2.34645 12.01611,-11.76767 0.0753,-1.05669 0.14973,-2.11336 0.0159,-2.87253 -1.15816,-6.579 -7.52866,-5.71849 -11.57733,-5.00589 l -8.85625,1.55896 1.56769,-45.92989 c 9.31408,6.96949 18.73532,7.13722 26.07347,5.84561 27.83432,-4.89952 53.92314,-34.53619 55.05404,-68.12787 z m -20.74933,3.65234 c -0.88815,23.11376 -17.65521,41.97888 -34.10269,44.87402 -14.67634,2.58337 -22.14227,-10.18994 -24.10207,-21.32371 -0.44539,-2.53045 -0.59328,-4.8523 -0.44353,-6.96564 l 0.63322,-18.63399 c 0.37823,-14.15409 14.2263,-28.85303 28.64944,-31.39181 14.42329,-2.53878 25.96832,8.21201 28.72987,23.90059 0.53443,3.03643 0.86038,6.37051 0.63576,9.54054 z M 668.72975,304.5305 c 0.0753,-1.05666 -0.10318,-2.06878 -0.2369,-2.82794 -1.15802,-6.57899 -7.02256,-5.80766 -11.32414,-5.05046 l -28.84654,5.07771 c -4.55465,0.80177 -11.80379,2.59949 -12.26918,11.81212 -0.0304,1.30975 0.1479,2.32197 0.28152,3.08102 1.158,6.57911 6.97794,5.55457 11.27955,4.79739 l 4.04866,-0.71261 -24.05337,72.3235 -22.75886,-64.08343 3.28949,-0.579 c 4.55465,-0.80177 11.84824,-2.34646 12.26918,-11.81226 0.0753,-1.05668 -0.10321,-2.06879 -0.23693,-2.82795 -1.15814,-6.57899 -7.02254,-5.80765 -11.32426,-5.05046 l -28.84641,5.0777 c -4.80784,0.84621 -11.84839,2.34644 -12.22459,12.06518 -0.0304,1.30975 0.1032,2.06892 0.23678,2.82796 1.15816,6.57913 7.23103,5.51014 11.2797,4.7974 l 6.32606,-1.11344 32.17042,86.42772 c -1.02823,3.05072 -7.01987,22.36688 -10.08859,28.64651 -5.39254,10.8626 -13.47745,18.28597 -18.2853,19.13218 0.32794,-1.10114 2.97771,-2.35029 3.06871,-6.27951 0.0753,-1.05668 -0.0582,-1.81572 -0.23692,-2.82795 -1.0244,-5.81994 -5.53262,-9.20046 -11.85854,-8.08689 -7.84429,1.38077 -12.98192,7.76358 -13.2084,15.36898 0.0582,1.81584 0.0729,3.37864 0.29568,4.6438 1.69256,9.61555 9.69691,16.55475 21.08361,14.55039 25.30398,-4.45412 39.11715,-41.58252 40.14539,-44.63324 l 41.68214,-121.86317 6.07288,-1.06897 c 4.55479,-0.80178 11.84837,-2.34645 12.26916,-11.81228 z m 128.21106,24.39018 c 0.2549,-4.47978 -0.29381,-9.07901 -1.05099,-13.38075 -4.40955,-25.05091 -23.81104,-40.41909 -47.09068,-36.32134 -10.88059,1.91533 -21.3908,7.41766 -29.89279,15.43617 0.11906,-0.80363 -0.0582,-1.81586 -0.19234,-2.5749 -0.71275,-4.04868 -3.59943,-5.62761 -11.19053,-4.29142 l -17.96582,3.1625 c -4.80784,0.84622 -12.05685,2.64396 -12.47764,12.10977 -0.0753,1.05668 0.10321,2.06878 0.23692,2.82796 1.15801,6.57899 7.48394,5.46556 11.27955,4.79741 l 9.10943,-1.60357 -4.46257,131.74727 -8.85652,1.55881 c -4.80771,0.84637 -12.35434,2.43561 -12.73057,12.15436 0.17806,1.01222 0.10319,2.06892 0.23693,2.82794 1.15802,6.57912 7.48394,5.46558 11.5326,4.75297 l 39.22114,-6.90389 c 4.30161,-0.75721 11.84824,-2.34645 12.0161,-11.76768 0.0753,-1.05668 0.14975,-2.11336 0.0159,-2.87253 -1.15817,-6.579 -7.52867,-5.71849 -11.57721,-5.00588 l -8.85638,1.55896 1.56769,-45.9299 c 9.31408,6.96949 18.73531,7.13736 26.07349,5.84561 27.83429,-4.89951 53.92313,-34.53618 55.05403,-68.12787 z m -20.74934,3.65236 c -0.88816,23.11375 -17.65508,41.97884 -34.1027,44.87401 -14.67634,2.58336 -22.14226,-10.18994 -24.10205,-21.32373 -0.4454,-2.53029 -0.5933,-4.85228 -0.44356,-6.96565 l 0.63326,-18.63384 c 0.3782,-14.1542 14.22628,-28.85302 28.64956,-31.39193 14.42313,-2.5388 25.96819,8.21214 28.72972,23.90058 0.53444,3.03645 0.86052,6.37051 0.63577,9.54056 z"
       id="text11"
       aria-label="dpyp" />
    <ellipse
       style="fill:#479c9c;fill-opacity:1;stroke-width:0.582552"
       id="ellipse3"
       cx="479.5654"
       cy="818.6095"
       rx="66.56826"
       ry="129.75227"
       transform="matrix(0.95345773,-0.3015267,0.18189413,0.98331812,0,0)" />
    <ellipse
       style="fill:#142c2c;fill-opacity:1;stroke-width:0.509832"
       id="ellipse2"
       cx="491.95804"
       cy="828.19067"
       rx="56.626144"
       ry="116.82829"
       transform="matrix(0.9468724,-0.32160949,0.1690566,0.98560634,0,0)" />
    <path
       style="font-size:173.333px;line-height:0;font-family:NewComputerModernMono10;-inkscape-font-specification:NewComputerModernMono10;letter-spacing:0px;word-spacing:0px;fill:#477ccb;stroke-width:1.04637"
       d="m 189.48307,781.63676 c -0.95279,-5.63754 -4.09233,-5.07692 -6.18528,-4.70318 l -11.90372,2.12568 -15.98412,-94.56543 c -0.4918,-2.9097 -1.26022,-7.45612 -5.18452,-6.75537 -2.48546,0.44385 -2.90147,2.76628 -3.18669,5.06535 -2.35799,16.34546 -8.82194,19.56056 -11.24581,20.3681 -2.06228,0.55559 -4.74786,1.40985 -3.88707,6.50183 0.76841,4.54642 3.27666,5.03525 5.23881,4.68486 2.48546,-0.44383 7.66424,-2.4927 12.25184,-10.43105 l 12.97167,76.74349 -11.90372,2.12569 c -2.09295,0.37374 -5.23237,0.93436 -4.27946,6.57192 0.92212,5.45567 4.19234,4.87171 6.1545,4.52132 l 32.83344,-5.86315 c 1.96216,-0.35038 5.23238,-0.93437 4.31013,-6.39006 z m 64.40813,-63.02158 c -5.71737,-33.82533 -23.08676,-55.26591 -37.47593,-52.69641 -14.65078,2.61622 -23.61281,29.32092 -18.01837,62.41883 5.71749,33.82532 23.08688,55.26591 37.47594,52.69641 14.65075,-2.61623 23.6128,-29.32092 18.01836,-62.41883 z m -9.36398,-0.38865 c 4.54929,26.91477 -0.32627,49.89222 -10.52943,51.71422 -10.20315,1.82201 -22.33302,-18.11872 -26.88229,-45.0335 -4.48794,-26.55107 1.49482,-46.16664 11.1748,-47.89523 9.54919,-1.70522 21.71831,14.48159 26.23692,41.21451 z m 82.30643,38.88317 c -0.95279,-5.63756 -4.09234,-5.07694 -6.18529,-4.7032 l -11.90371,2.12569 -15.98413,-94.56543 c -0.49179,-2.90971 -1.26033,-7.45613 -5.18463,-6.75535 -2.48534,0.44382 -2.90135,2.76626 -3.18656,5.06535 -2.35801,16.34544 -8.82195,19.56054 -11.24582,20.36807 -2.06227,0.5556 -4.74786,1.40988 -3.88708,6.50184 0.76842,4.54644 3.27666,5.03524 5.23882,4.68485 2.48546,-0.44382 7.66424,-2.49268 12.25183,-10.43102 l 12.97167,76.74346 -11.90372,2.12569 c -2.09294,0.37375 -5.23237,0.93436 -4.27946,6.57192 0.92213,5.4557 4.19234,4.87172 6.15451,4.52133 l 32.83332,-5.86314 c 1.96216,-0.35039 5.2325,-0.93436 4.31025,-6.39006 z m 64.40812,-63.02159 c -5.71736,-33.82531 -23.08687,-55.26592 -37.47594,-52.69641 -14.65075,2.61623 -23.6128,29.32091 -18.01836,62.41882 5.71749,33.82533 23.08689,55.26591 37.47594,52.69642 14.65077,-2.61623 23.61281,-29.32092 18.01836,-62.41883 z m -9.36409,-0.38864 c 4.5494,26.91478 -0.32615,49.89219 -10.52931,51.71421 -10.20315,1.82202 -22.33301,-18.11873 -26.8823,-45.03351 -4.48794,-26.55106 1.49483,-46.16664 11.17481,-47.8952 9.54917,-1.70522 21.71831,14.48158 26.2368,41.2145 z m 82.30655,38.88315 c -0.95292,-5.63755 -4.09234,-5.07692 -6.18528,-4.70318 l -11.90374,2.12569 -15.98411,-94.56538 c -0.4918,-2.9097 -1.26033,-7.45612 -5.18465,-6.75537 -2.48532,0.44382 -2.90134,2.76626 -3.18655,5.0653 -2.358,16.34546 -8.82194,19.56056 -11.24594,20.36809 -2.06216,0.5556 -4.74774,1.40986 -3.88708,6.50184 0.76855,4.54641 3.27679,5.03524 5.23895,4.68485 2.48544,-0.44382 7.66425,-2.4927 12.2517,-10.43105 l 12.97181,76.7435 -11.90373,2.12568 c -2.09295,0.37374 -5.23237,0.93435 -4.27946,6.57191 0.92213,5.45569 4.19235,4.87172 6.15449,4.52133 l 32.83333,-5.86314 c 1.96216,-0.35038 5.2325,-0.93437 4.31026,-6.39007 z m 64.40811,-63.02158 c -5.71747,-33.82533 -23.08688,-55.26595 -37.47593,-52.69636 -14.65076,2.61613 -23.6128,29.32087 -18.01835,62.41877 5.71748,33.82533 23.08688,55.26592 37.47593,52.69642 14.65076,-2.61624 23.6128,-29.32092 18.01835,-62.41883 z m -9.36408,-0.38864 c 4.54939,26.91477 -0.32615,49.89221 -10.5293,51.71422 -10.20316,1.82201 -22.33303,-18.11873 -26.88231,-45.03351 -4.48795,-26.55107 1.49482,-46.16664 11.17481,-47.89526 9.54918,-1.70522 21.7183,14.48162 26.2368,41.21455 z m 82.30655,38.88316 c -0.95292,-5.63755 -4.09235,-5.07693 -6.18529,-4.70319 l -11.90373,2.12568 -15.98413,-94.56547 c -0.49177,-2.9097 -1.26032,-7.45612 -5.18463,-6.75525 -2.48532,0.44383 -2.90134,2.76626 -3.18656,5.06531 -2.358,16.34547 -8.82193,19.56056 -11.24593,20.36812 -2.06216,0.55552 -4.74774,1.40985 -3.88708,6.50177 0.76854,4.54644 3.27679,5.03525 5.23894,4.68486 2.48545,-0.44382 7.66424,-2.49268 12.25171,-10.43099 l 12.9718,76.74343 -11.90372,2.12568 c -2.09295,0.37375 -5.23237,0.93437 -4.27945,6.57192 0.92211,5.45571 4.19234,4.87173 6.15449,4.52134 l 32.83333,-5.86315 c 1.96215,-0.35038 5.23249,-0.93435 4.31025,-6.39006 z m 64.40811,-63.02159 c -5.71748,-33.82532 -23.08688,-55.26593 -37.47592,-52.69635 -14.65077,2.61612 -23.61281,29.32086 -18.01837,62.41877 5.71736,33.82533 23.08688,55.2659 37.47594,52.69641 14.65075,-2.61623 23.6128,-29.32092 18.01835,-62.41883 z m -9.36408,-0.38864 c 4.5494,26.91479 -0.32615,49.8922 -10.52931,51.71422 -10.20316,1.82201 -22.33303,-18.11874 -26.88243,-45.03352 -4.48782,-26.55104 1.49495,-46.16662 11.17492,-47.89522 9.54919,-1.70523 21.71819,14.48165 26.23682,41.21452 z m 82.30653,38.88316 c -0.9529,-5.63755 -4.09232,-5.07692 -6.18527,-4.70318 l -11.90373,2.12568 -15.98412,-94.56546 c -0.4918,-2.9097 -1.26033,-7.45612 -5.18463,-6.75537 -2.48535,0.44382 -2.90135,2.76626 -3.18658,5.06542 -2.35799,16.34548 -8.82194,19.56056 -11.24592,20.36801 -2.06216,0.55563 -4.74774,1.40986 -3.88707,6.50188 0.76852,4.54642 3.27678,5.03523 5.23893,4.68485 2.48533,-0.44382 7.66412,-2.49273 12.2517,-10.43109 l 12.9718,76.74354 -11.90371,2.12568 c -2.09295,0.37374 -5.23238,0.93436 -4.27958,6.57192 0.92224,5.45568 4.19245,4.87171 6.15461,4.52132 l 32.83333,-5.86314 c 1.96215,-0.35038 5.23238,-0.93437 4.31024,-6.39006 z"
       id="text12"
       aria-label="101010101" />
    <path
       id="path3"
       style="fill:#479c9c;fill-opacity:1;stroke-width:0.565694"
       d="m 967.99205,462.08429 -382.75415,70.19768 0.0155,0.15956 a 130.56977,62.507055 82.85827 0 1 73.24319,109.38652 130.56977,62.507055 82.85827 0 1 -35.1758,147.09235 l 370.26777,-67.90676 z" />
  </g>
  <g
     inkscape:groupmode="layer"
     id="layer4"
     inkscape:label="Frame">
    <path
       id="path4"
       clip-path="none"
       style="fill:#152a4a;fill-opacity:1;stroke-width:1.04161"
       d="M 540,5.07419 76.7402,272.53711 v 534.9258 L 540,1074.9258 1003.2598,807.46291 v -534.9258 z m 0,47.4786 422.1426,243.72252 v 487.4494 L 540,1027.4472 117.8575,783.72471 v -487.4494 z" />
  </g>
</svg>
