<?xml version="1.0" encoding="UTF-8" standalone="no"?>
<!-- Created with Inkscape (http://www.inkscape.org/) -->

<svg
   width="1080"
   height="1080"
   viewBox="0 0 1080 1080"
   version="1.1"
   id="svg1"
   inkscape:version="1.3.2 (091e20ef0f, 2023-11-25)"
   sodipodi:docname="dpyp_logo.svg"
   inkscape:export-filename="dpyp_logo.png"
   inkscape:export-xdpi="96"
   inkscape:export-ydpi="96"
   xmlns:inkscape="http://www.inkscape.org/namespaces/inkscape"
   xmlns:sodipodi="http://sodipodi.sourceforge.net/DTD/sodipodi-0.dtd"
   xmlns="http://www.w3.org/2000/svg"
   xmlns:svg="http://www.w3.org/2000/svg">
  <sodipodi:namedview
     id="namedview1"
     pagecolor="#505050"
     bordercolor="#ffffff"
     borderopacity="1"
     inkscape:showpageshadow="0"
     inkscape:pageopacity="0"
     inkscape:pagecheckerboard="1"
     inkscape:deskcolor="#505050"
     inkscape:document-units="px"
     inkscape:zoom="0.41012193"
     inkscape:cx="612.01312"
     inkscape:cy="544.95989"
     inkscape:window-width="2560"
     inkscape:window-height="1403"
     inkscape:window-x="0"
     inkscape:window-y="0"
     inkscape:window-maximized="1"
     inkscape:current-layer="layer1" />
  <defs
     id="defs1">
    <clipPath
       clipPathUnits="userSpaceOnUse"
       id="clipPath18">
      <g
         id="g19"
         transform="matrix(1.0070719,0,0,1.0070719,-7.5992201,-3.8675306)">
        <g
           inkscape:label="Clip"
           id="use19"
           transform="matrix(0.99297776,0,0,0.99297776,7.5458566,3.8403719)"
           clip-path="url(#clipPath18)">
          <circle
             style="fill:#aaccff;fill-opacity:1;stroke-width:0.967342"
             id="circle19"
             cx="536.2196"
             cy="539.95129"
             r="488.87408"
             transform="matrix(0.99297776,0,0,0.99297776,7.5458566,3.8403719)" />
        </g>
      </g>
    </clipPath>
    <clipPath
       clipPathUnits="userSpaceOnUse"
       id="clipPath21">
      <g
         inkscape:label="Clip"
         id="use21">
        <circle
           style="fill:#aaccff;fill-opacity:1;stroke-width:0.960549"
           id="circle21"
           cx="540"
           cy="540"
           r="485.4411" />
      </g>
    </clipPath>
  </defs>
  <g
     inkscape:label="Layer 1"
     inkscape:groupmode="layer"
     id="layer1">
    <path
       id="path22"
       style="fill:#d2dff1;fill-opacity:1;stroke-width:1.02438"
       d="M 472.27976,48.91115 A 495.73615,495.73615 0 0 0 48.911105,607.72015 495.73615,495.73615 0 0 0 607.72006,1031.0889 495.73615,495.73615 0 0 0 1031.0889,472.27984 495.73615,495.73615 0 0 0 472.27976,48.91115 Z" />
    <path
       style="font-style:oblique;font-weight:bold;font-size:240px;font-family:NewComputerModernMono10;-inkscape-font-specification:'NewComputerModernMono10 Bold Oblique';fill:#152a4a"
       d="m 307.75662,492.91897 c 0,-0.72 0.24,-1.68 0.24,-2.4 0,-6.24 -6,-6.48 -9.84,-6.48 h -8.64 l 24.96,-117.12 c 0.48,-2.16 0.72,-3.84 0.72,-5.28 0,-4.56 -2.4,-6.24 -9.6,-6.24 h -17.04 c -4.56,0 -11.52,0.24 -13.44,9.12 -0.24,0.96 -0.24,1.92 -0.24,2.64 0,6.24 6,6.24 9.6,6.24 h 8.64 l -6.48,31.2 c -6.24,-5.52 -14.64,-8.4 -23.76,-8.4 -26.4,0 -54.72,22.8 -61.2,53.76 -0.96,4.32 -1.44,8.64 -1.44,12.48 0,23.76 15.6,41.04 37.68,41.04 11.76,0 21.84,-4.8 30,-10.8 -0.24,1.44 -0.24,2.64 -0.24,3.6 0,4.08 1.92,5.76 9.6,5.76 h 17.04 c 4.56,0 11.52,-0.24 13.44,-9.12 z m -32.16,-38.16 c -2.4,12.24 -16.32,30.72 -33.12,30.72 -13.2,0 -22.08,-11.04 -22.08,-26.4 0,-2.88 0.24,-5.76 0.96,-9.12 4.56,-21.36 22.8,-35.76 38.4,-35.76 12.24,0 19.92,9.36 19.92,19.68 0,1.44 -0.24,2.88 -0.48,4.32 z m 161.51991,-5.04 c 0.96,-4.08 1.2,-8.4 1.2,-12.48 0,-23.76 -15.36,-41.04 -37.44,-41.04 -10.32,0 -20.88,3.36 -30,9.36 0.24,-0.72 0.24,-1.68 0.24,-2.4 0,-3.84 -2.4,-5.76 -9.6,-5.76 h -17.04 c -4.56,0 -11.52,0.48 -13.44,9.12 -0.24,0.96 -0.24,1.92 -0.24,2.64 0,6.24 6,6.24 9.6,6.24 h 8.64 l -25.44,120.48 h -8.4 c -4.56,0 -11.76,0.24 -13.68,9.12 0,0.96 -0.24,1.92 -0.24,2.64 0,6.24 6,6.24 9.84,6.24 h 37.2 c 4.08,0 11.28,-0.24 12.96,-8.88 0.24,-0.96 0.48,-1.92 0.48,-2.64 0,-6.24 -6,-6.48 -9.84,-6.48 h -8.4 l 8.88,-42 c 7.44,7.92 16.08,9.6 23.04,9.6 26.4,0 55.2,-23.04 61.68,-53.76 z m -19.68,0 c -4.56,21.12 -23.04,35.76 -38.64,35.76 -13.92,0 -18.72,-12.96 -18.72,-23.52 0,-2.4 0.24,-4.56 0.72,-6.48 l 3.6,-17.04 c 2.64,-12.96 17.76,-24.24 31.44,-24.24 13.68,0 22.56,11.76 22.56,26.64 0,2.88 -0.24,6 -0.96,8.88 z m 157.67991,-43.2 c 0.24,-0.96 0.24,-1.92 0.24,-2.64 0,-6.24 -5.52,-6.48 -9.6,-6.48 h -27.36 c -4.32,0 -11.28,0.48 -13.2,8.88 -0.24,1.2 -0.24,2.16 -0.24,2.88 0,6.24 5.52,6.24 9.6,6.24 h 3.84 l -33.84,62.64 -10.56,-62.64 h 3.12 c 4.32,0 11.28,-0.24 13.2,-8.88 0.24,-0.96 0.24,-1.92 0.24,-2.64 0,-6.24 -5.52,-6.48 -9.6,-6.48 h -27.36 c -4.56,0 -11.28,0.24 -13.2,9.12 -0.24,1.2 -0.24,1.92 -0.24,2.64 0,6.24 5.76,6.24 9.6,6.24 h 6 l 15.6,84.72 c -1.44,2.64 -10.08,19.44 -13.92,24.72 -6.72,9.12 -15.36,14.64 -19.92,14.64 0.48,-0.96 3.12,-1.68 3.84,-5.28 0.24,-0.96 0.24,-1.68 0.24,-2.64 0,-5.52 -3.6,-9.36 -9.6,-9.36 -7.44,0 -13.2,5.04 -14.64,12 -0.24,1.68 -0.48,3.12 -0.48,4.32 0,9.12 6.24,16.8 17.04,16.8 24,0 42.72,-31.92 44.16,-34.56 l 58.08,-105.36 h 5.76 c 4.32,0 11.28,-0.24 13.2,-8.88 z m 113.99991,43.2 c 0.96,-4.08 1.2,-8.4 1.2,-12.48 0,-23.76 -15.36,-41.04 -37.44,-41.04 -10.32,0 -20.88,3.36 -30,9.36 0.24,-0.72 0.24,-1.68 0.24,-2.4 0,-3.84 -2.4,-5.76 -9.6,-5.76 h -17.04 c -4.56,0 -11.52,0.48 -13.44,9.12 -0.24,0.96 -0.24,1.92 -0.24,2.64 0,6.24 6,6.24 9.6,6.24 h 8.64 l -25.44,120.48 h -8.4 c -4.56,0 -11.76,0.24 -13.68,9.12 0,0.96 -0.24,1.92 -0.24,2.64 0,6.24 6,6.24 9.84,6.24 h 37.2 c 4.08,0 11.28,-0.24 12.96,-8.88 0.24,-0.96 0.48,-1.92 0.48,-2.64 0,-6.24 -6,-6.48 -9.84,-6.48 h -8.4 l 8.88,-42 c 7.44,7.92 16.08,9.6 23.04,9.6 26.4,0 55.2,-23.04 61.68,-53.76 z m -19.68,0 c -4.56,21.12 -23.04,35.76 -38.64,35.76 -13.92,0 -18.72,-12.96 -18.72,-23.52 0,-2.4 0.24,-4.56 0.72,-6.48 l 3.6,-17.04 c 2.64,-12.96 17.76,-24.24 31.44,-24.24 13.68,0 22.56,11.76 22.56,26.64 0,2.88 -0.24,6 -0.96,8.88 z"
       id="text11"
       transform="rotate(-9.9831318)"
       aria-label="dpyp" />
    <ellipse
       style="fill:#479c9c;fill-opacity:1;stroke-width:0.64502"
       id="ellipse3"
       cx="483.216"
       cy="797.72125"
       rx="73.706505"
       ry="143.66586"
       transform="matrix(0.95345773,-0.3015267,0.18189413,0.98331812,0,0)" />
    <ellipse
       style="fill:#142c2c;fill-opacity:1;stroke-width:0.564502"
       id="ellipse2"
       cx="495.35281"
       cy="807.09155"
       rx="62.69828"
       ry="129.35602"
       transform="matrix(0.9468724,-0.32160949,0.1690566,0.98560634,0,0)" />
    <path
       style="font-size:173.333px;line-height:0;font-family:NewComputerModernMono10;-inkscape-font-specification:NewComputerModernMono10;letter-spacing:0px;word-spacing:0px;fill:#477ccb;stroke-width:1.15858"
       d="m 30.246514,666.13814 c 0,-5.37332 -4.159992,-5.37332 -6.93332,-5.37332 H 7.539892 v -90.13315 c 0,-2.77333 0,-7.10666 -5.1999898,-7.10666 -3.29332685,0 -4.3333248,2.08 -5.1999898,4.16 -6.5866537,14.7333 -15.5999694,16.63996 -18.8932964,16.98663 -2.773328,0.17333 -6.41332,0.52 -6.41332,5.37332 0,4.33333 3.119993,5.19999 5.719988,5.19999 3.293327,0 10.39998,-1.04 18.0266315,-7.62665 v 73.14652 H -20.193387 c -2.773328,0 -6.93332,0 -6.93332,5.37332 0,5.19999 4.333325,5.19999 6.93332,5.19999 h 43.506581 c 2.599995,0 6.93332,0 6.93332,-5.19999 z m 96.546416,-47.66657 c 0,-32.23993 -17.67997,-54.94656 -36.746599,-54.94656 -19.413295,0 -36.746594,23.22662 -36.746594,54.77323 0,32.23994 17.679965,54.94656 36.746594,54.94656 19.413299,0 36.746599,-23.22662 36.746599,-54.77323 z m -11.95998,-1.90666 c 0,25.65328 -11.26665,46.10658 -24.786619,46.10658 -13.519973,0 -24.786618,-20.4533 -24.786618,-46.10658 0,-25.30662 11.959977,-42.46658 24.786618,-42.46658 12.653309,0 24.786619,16.98663 24.786619,42.46658 z m 97.41308,49.57323 c 0,-5.37332 -4.16,-5.37332 -6.93332,-5.37332 H 189.5394 v -90.13315 c 0,-2.77333 0,-7.10666 -5.19999,-7.10666 -3.29332,0 -4.33332,2.08 -5.19999,4.16 -6.58665,14.7333 -15.59997,16.63996 -18.89329,16.98663 -2.77333,0.17333 -6.41332,0.52 -6.41332,5.37332 0,4.33333 3.11999,5.19999 5.71999,5.19999 3.29332,0 10.39998,-1.04 18.02663,-7.62665 v 73.14652 h -15.77331 c -2.77332,0 -6.93331,0 -6.93331,5.37332 0,5.19999 4.33332,5.19999 6.93331,5.19999 h 43.50659 c 2.59999,0 6.93332,0 6.93332,-5.19999 z m 96.54641,-47.66657 c 0,-32.23993 -17.67997,-54.94656 -36.7466,-54.94656 -19.41329,0 -36.74659,23.22662 -36.74659,54.77323 0,32.23994 17.67996,54.94656 36.74659,54.94656 19.4133,0 36.7466,-23.22662 36.7466,-54.77323 z m -11.95998,-1.90666 c 0,25.65328 -11.26664,46.10658 -24.78662,46.10658 -13.51997,0 -24.78662,-20.4533 -24.78662,-46.10658 0,-25.30662 11.95998,-42.46658 24.78662,-42.46658 12.65331,0 24.78662,16.98663 24.78662,42.46658 z m 97.41308,49.57323 c 0,-5.37332 -4.15999,-5.37332 -6.93332,-5.37332 h -15.7733 v -90.13315 c 0,-2.77333 0,-7.10666 -5.19999,-7.10666 -3.29333,0 -4.33333,2.08 -5.19999,4.16 -6.58666,14.7333 -15.59997,16.63996 -18.8933,16.98663 -2.77333,0.17333 -6.41332,0.52 -6.41332,5.37332 0,4.33333 3.11999,5.19999 5.71999,5.19999 3.29332,0 10.39998,-1.04 18.02663,-7.62665 v 73.14652 h -15.7733 c -2.77333,0 -6.93332,0 -6.93332,5.37332 0,5.19999 4.33332,5.19999 6.93332,5.19999 h 43.50658 c 2.59999,0 6.93332,0 6.93332,-5.19999 z m 96.54641,-47.66657 c 0,-32.23993 -17.67997,-54.94656 -36.7466,-54.94656 -19.41329,0 -36.74659,23.22662 -36.74659,54.77323 0,32.23994 17.67997,54.94656 36.74659,54.94656 19.4133,0 36.7466,-23.22662 36.7466,-54.77323 z m -11.95998,-1.90666 c 0,25.65328 -11.26664,46.10658 -24.78662,46.10658 -13.51997,0 -24.78661,-20.4533 -24.78661,-46.10658 0,-25.30662 11.95997,-42.46658 24.78661,-42.46658 12.65331,0 24.78662,16.98663 24.78662,42.46658 z m 97.41308,49.57323 c 0,-5.37332 -4.15999,-5.37332 -6.93332,-5.37332 h -15.7733 v -90.13315 c 0,-2.77333 0,-7.10666 -5.19999,-7.10666 -3.29333,0 -4.33333,2.08 -5.19999,4.16 -6.58666,14.7333 -15.59997,16.63996 -18.8933,16.98663 -2.77333,0.17333 -6.41332,0.52 -6.41332,5.37332 0,4.33333 3.11999,5.19999 5.71999,5.19999 3.29333,0 10.39998,-1.04 18.02663,-7.62665 v 73.14652 h -15.7733 c -2.77333,0 -6.93332,0 -6.93332,5.37332 0,5.19999 4.33332,5.19999 6.93332,5.19999 h 43.50658 c 2.59999,0 6.93332,0 6.93332,-5.19999 z m 96.54641,-47.66657 c 0,-32.23993 -17.67996,-54.94656 -36.74659,-54.94656 -19.4133,0 -36.7466,23.22662 -36.7466,54.77323 0,32.23994 17.67997,54.94656 36.7466,54.94656 19.41329,0 36.74659,-23.22662 36.74659,-54.77323 z m -11.95998,-1.90666 c 0,25.65328 -11.26664,46.10658 -24.78661,46.10658 -13.51998,0 -24.78662,-20.4533 -24.78662,-46.10658 0,-25.30662 11.95997,-42.46658 24.78662,-42.46658 12.6533,0 24.78661,16.98663 24.78661,42.46658 z m 97.41308,49.57323 c 0,-5.37332 -4.15999,-5.37332 -6.93332,-5.37332 h -15.7733 v -90.13315 c 0,-2.77333 0,-7.10666 -5.19999,-7.10666 -3.29333,0 -4.33333,2.08 -5.19999,4.16 -6.58665,14.7333 -15.59997,16.63996 -18.8933,16.98663 -2.77332,0.17333 -6.41332,0.52 -6.41332,5.37332 0,4.33333 3.12,5.19999 5.71999,5.19999 3.29333,0 10.39998,-1.04 18.02663,-7.62665 v 73.14652 h -15.7733 c -2.77333,0 -6.93332,0 -6.93332,5.37332 0,5.19999 4.33333,5.19999 6.93332,5.19999 h 43.50658 c 2.6,0 6.93332,0 6.93332,-5.19999 z"
       id="text12"
       transform="matrix(0.83560084,-0.14921554,0.19635558,1.1616799,0,0)"
       aria-label="101010101" />
    <path
       id="path3"
       style="fill:#479c9c;fill-opacity:1;stroke-width:0.626354"
       d="m 1006.4748,419.18283 -423.79763,77.72508 0.0175,0.17663 a 144.57103,69.209812 82.85827 0 1 81.09719,121.1163 144.57103,69.209812 82.85827 0 1 -38.94784,162.86536 l 409.97228,-75.18853 z" />
    <path
       id="path23"
       style="fill:#152a4a;fill-opacity:1;stroke-width:0.979204"
       d="M 568.77806,8.9033803 A 531.8756,531.8756 0 0 0 8.9034475,511.22174 531.8756,531.8756 0 0 0 511.22175,1071.0966 531.8756,531.8756 0 0 0 1071.0966,568.77802 531.8756,531.8756 0 0 0 568.77806,8.9033803 Z M 565.63977,66.819579 A 473.8745,473.8745 0 0 1 1013.1803,565.63973 473.8745,473.8745 0 0 1 514.36011,1013.1802 473.8745,473.8745 0 0 1 66.819654,514.36004 473.8745,473.8745 0 0 1 565.6398,66.81958 Z" />
  </g>
</svg>
